<mxfile host="app.diagrams.net" modified="2022-07-04T12:44:52.564Z" agent="5.0 (Windows NT 10.0; Win64; x64) AppleWebKit/537.36 (KHTML, like Gecko) Chrome/103.0.0.0 Safari/537.36" etag="QIPpqloLBgyFfCmchxgs" version="17.1.3" type="github">
  <diagram id="DWR8H69yxdcNWqOVOWP7" name="Page-1">
    <mxGraphModel dx="1422" dy="747" grid="1" gridSize="10" guides="1" tooltips="1" connect="1" arrows="1" fold="1" page="1" pageScale="1" pageWidth="827" pageHeight="1169" math="0" shadow="0">
      <root>
        <mxCell id="0" />
        <mxCell id="1" parent="0" />
        <mxCell id="7smyxvvECIf_MJmP0ZhW-18" value="" style="edgeStyle=orthogonalEdgeStyle;rounded=0;orthogonalLoop=1;jettySize=auto;html=1;" edge="1" parent="1" source="7smyxvvECIf_MJmP0ZhW-1" target="7smyxvvECIf_MJmP0ZhW-2">
          <mxGeometry relative="1" as="geometry" />
        </mxCell>
        <mxCell id="7smyxvvECIf_MJmP0ZhW-1" value="start" style="ellipse;whiteSpace=wrap;html=1;" vertex="1" parent="1">
          <mxGeometry x="354" y="70" width="120" height="80" as="geometry" />
        </mxCell>
        <mxCell id="7smyxvvECIf_MJmP0ZhW-17" value="" style="edgeStyle=orthogonalEdgeStyle;rounded=0;orthogonalLoop=1;jettySize=auto;html=1;" edge="1" parent="1" source="7smyxvvECIf_MJmP0ZhW-2" target="7smyxvvECIf_MJmP0ZhW-4">
          <mxGeometry relative="1" as="geometry" />
        </mxCell>
        <mxCell id="7smyxvvECIf_MJmP0ZhW-2" value="podaj a,b,c" style="shape=parallelogram;perimeter=parallelogramPerimeter;whiteSpace=wrap;html=1;fixedSize=1;" vertex="1" parent="1">
          <mxGeometry x="360" y="220" width="120" height="60" as="geometry" />
        </mxCell>
        <mxCell id="7smyxvvECIf_MJmP0ZhW-21" style="edgeStyle=orthogonalEdgeStyle;rounded=0;orthogonalLoop=1;jettySize=auto;html=1;exitX=0.5;exitY=0;exitDx=0;exitDy=0;entryX=0;entryY=0.5;entryDx=0;entryDy=0;" edge="1" parent="1" source="7smyxvvECIf_MJmP0ZhW-3" target="7smyxvvECIf_MJmP0ZhW-1">
          <mxGeometry relative="1" as="geometry" />
        </mxCell>
        <mxCell id="7smyxvvECIf_MJmP0ZhW-3" value="wypisz to nie jest równanie kwadratowe" style="shape=parallelogram;perimeter=parallelogramPerimeter;whiteSpace=wrap;html=1;fixedSize=1;" vertex="1" parent="1">
          <mxGeometry x="150" y="320" width="180" height="60" as="geometry" />
        </mxCell>
        <mxCell id="7smyxvvECIf_MJmP0ZhW-19" value="" style="edgeStyle=orthogonalEdgeStyle;rounded=0;orthogonalLoop=1;jettySize=auto;html=1;" edge="1" parent="1" source="7smyxvvECIf_MJmP0ZhW-4" target="7smyxvvECIf_MJmP0ZhW-6">
          <mxGeometry relative="1" as="geometry" />
        </mxCell>
        <mxCell id="7smyxvvECIf_MJmP0ZhW-20" value="" style="edgeStyle=orthogonalEdgeStyle;rounded=0;orthogonalLoop=1;jettySize=auto;html=1;" edge="1" parent="1" source="7smyxvvECIf_MJmP0ZhW-4" target="7smyxvvECIf_MJmP0ZhW-3">
          <mxGeometry relative="1" as="geometry" />
        </mxCell>
        <mxCell id="7smyxvvECIf_MJmP0ZhW-27" style="edgeStyle=orthogonalEdgeStyle;rounded=0;orthogonalLoop=1;jettySize=auto;html=1;entryX=0.5;entryY=1;entryDx=0;entryDy=0;fillColor=#f8cecc;strokeColor=#b85450;" edge="1" parent="1" source="7smyxvvECIf_MJmP0ZhW-4" target="7smyxvvECIf_MJmP0ZhW-5">
          <mxGeometry relative="1" as="geometry">
            <mxPoint x="80" y="340" as="targetPoint" />
            <Array as="points">
              <mxPoint x="354" y="350" />
              <mxPoint x="354" y="340" />
              <mxPoint x="90" y="340" />
            </Array>
          </mxGeometry>
        </mxCell>
        <mxCell id="7smyxvvECIf_MJmP0ZhW-4" value="a!=0" style="rhombus;whiteSpace=wrap;html=1;" vertex="1" parent="1">
          <mxGeometry x="374" y="310" width="80" height="80" as="geometry" />
        </mxCell>
        <mxCell id="7smyxvvECIf_MJmP0ZhW-5" value="stop" style="ellipse;whiteSpace=wrap;html=1;" vertex="1" parent="1">
          <mxGeometry x="30" y="200" width="120" height="80" as="geometry" />
        </mxCell>
        <mxCell id="7smyxvvECIf_MJmP0ZhW-30" value="" style="edgeStyle=orthogonalEdgeStyle;rounded=0;orthogonalLoop=1;jettySize=auto;html=1;" edge="1" parent="1" source="7smyxvvECIf_MJmP0ZhW-6" target="7smyxvvECIf_MJmP0ZhW-7">
          <mxGeometry relative="1" as="geometry" />
        </mxCell>
        <mxCell id="7smyxvvECIf_MJmP0ZhW-6" value="delta = b^2-4ac" style="rounded=0;whiteSpace=wrap;html=1;" vertex="1" parent="1">
          <mxGeometry x="550" y="320" width="120" height="60" as="geometry" />
        </mxCell>
        <mxCell id="7smyxvvECIf_MJmP0ZhW-31" style="edgeStyle=orthogonalEdgeStyle;rounded=0;orthogonalLoop=1;jettySize=auto;html=1;entryX=0.5;entryY=0;entryDx=0;entryDy=0;" edge="1" parent="1" source="7smyxvvECIf_MJmP0ZhW-7" target="7smyxvvECIf_MJmP0ZhW-8">
          <mxGeometry relative="1" as="geometry">
            <mxPoint x="710" y="440" as="targetPoint" />
          </mxGeometry>
        </mxCell>
        <mxCell id="7smyxvvECIf_MJmP0ZhW-33" value="" style="edgeStyle=orthogonalEdgeStyle;rounded=0;orthogonalLoop=1;jettySize=auto;html=1;" edge="1" parent="1" source="7smyxvvECIf_MJmP0ZhW-7" target="7smyxvvECIf_MJmP0ZhW-14">
          <mxGeometry relative="1" as="geometry" />
        </mxCell>
        <mxCell id="7smyxvvECIf_MJmP0ZhW-7" value="delta&amp;gt;=0" style="rhombus;whiteSpace=wrap;html=1;" vertex="1" parent="1">
          <mxGeometry x="570" y="400" width="80" height="80" as="geometry" />
        </mxCell>
        <mxCell id="7smyxvvECIf_MJmP0ZhW-35" style="edgeStyle=orthogonalEdgeStyle;rounded=0;orthogonalLoop=1;jettySize=auto;html=1;entryX=0.5;entryY=0;entryDx=0;entryDy=0;" edge="1" parent="1" source="7smyxvvECIf_MJmP0ZhW-8" target="7smyxvvECIf_MJmP0ZhW-10">
          <mxGeometry relative="1" as="geometry">
            <mxPoint x="600" y="520" as="targetPoint" />
          </mxGeometry>
        </mxCell>
        <mxCell id="7smyxvvECIf_MJmP0ZhW-36" style="edgeStyle=orthogonalEdgeStyle;rounded=0;orthogonalLoop=1;jettySize=auto;html=1;entryX=0;entryY=0.5;entryDx=0;entryDy=0;" edge="1" parent="1" source="7smyxvvECIf_MJmP0ZhW-8" target="7smyxvvECIf_MJmP0ZhW-9">
          <mxGeometry relative="1" as="geometry" />
        </mxCell>
        <mxCell id="7smyxvvECIf_MJmP0ZhW-8" value="delta==0" style="rhombus;whiteSpace=wrap;html=1;" vertex="1" parent="1">
          <mxGeometry x="680" y="480" width="80" height="80" as="geometry" />
        </mxCell>
        <mxCell id="7smyxvvECIf_MJmP0ZhW-37" style="edgeStyle=orthogonalEdgeStyle;rounded=0;orthogonalLoop=1;jettySize=auto;html=1;entryX=0.45;entryY=0;entryDx=0;entryDy=0;entryPerimeter=0;" edge="1" parent="1" source="7smyxvvECIf_MJmP0ZhW-9" target="7smyxvvECIf_MJmP0ZhW-13">
          <mxGeometry relative="1" as="geometry" />
        </mxCell>
        <mxCell id="7smyxvvECIf_MJmP0ZhW-9" value="x=-b/2a" style="rounded=0;whiteSpace=wrap;html=1;" vertex="1" parent="1">
          <mxGeometry x="820" y="490" width="120" height="60" as="geometry" />
        </mxCell>
        <mxCell id="7smyxvvECIf_MJmP0ZhW-39" value="" style="edgeStyle=orthogonalEdgeStyle;rounded=0;orthogonalLoop=1;jettySize=auto;html=1;" edge="1" parent="1" source="7smyxvvECIf_MJmP0ZhW-10" target="7smyxvvECIf_MJmP0ZhW-11">
          <mxGeometry relative="1" as="geometry" />
        </mxCell>
        <mxCell id="7smyxvvECIf_MJmP0ZhW-10" value="x1=-b-sqrt(delta)/2a&lt;br&gt;x2=-b+sqrt(delta)/2a" style="rounded=0;whiteSpace=wrap;html=1;" vertex="1" parent="1">
          <mxGeometry x="550" y="580" width="120" height="60" as="geometry" />
        </mxCell>
        <mxCell id="7smyxvvECIf_MJmP0ZhW-40" value="" style="edgeStyle=orthogonalEdgeStyle;rounded=0;orthogonalLoop=1;jettySize=auto;html=1;" edge="1" parent="1" source="7smyxvvECIf_MJmP0ZhW-11" target="7smyxvvECIf_MJmP0ZhW-12">
          <mxGeometry relative="1" as="geometry" />
        </mxCell>
        <mxCell id="7smyxvvECIf_MJmP0ZhW-11" value="wypisz x1, x2" style="shape=parallelogram;perimeter=parallelogramPerimeter;whiteSpace=wrap;html=1;fixedSize=1;" vertex="1" parent="1">
          <mxGeometry x="560" y="670" width="120" height="60" as="geometry" />
        </mxCell>
        <mxCell id="7smyxvvECIf_MJmP0ZhW-12" value="stop" style="ellipse;whiteSpace=wrap;html=1;" vertex="1" parent="1">
          <mxGeometry x="560" y="780" width="120" height="80" as="geometry" />
        </mxCell>
        <mxCell id="7smyxvvECIf_MJmP0ZhW-38" style="edgeStyle=orthogonalEdgeStyle;rounded=0;orthogonalLoop=1;jettySize=auto;html=1;entryX=1;entryY=0.5;entryDx=0;entryDy=0;" edge="1" parent="1" source="7smyxvvECIf_MJmP0ZhW-13" target="7smyxvvECIf_MJmP0ZhW-12">
          <mxGeometry relative="1" as="geometry">
            <mxPoint x="890" y="830" as="targetPoint" />
            <Array as="points">
              <mxPoint x="900" y="765" />
              <mxPoint x="910" y="765" />
              <mxPoint x="910" y="830" />
              <mxPoint x="680" y="830" />
            </Array>
          </mxGeometry>
        </mxCell>
        <mxCell id="7smyxvvECIf_MJmP0ZhW-13" value="wypisz x" style="shape=parallelogram;perimeter=parallelogramPerimeter;whiteSpace=wrap;html=1;fixedSize=1;" vertex="1" parent="1">
          <mxGeometry x="840" y="640" width="120" height="60" as="geometry" />
        </mxCell>
        <mxCell id="7smyxvvECIf_MJmP0ZhW-34" style="edgeStyle=orthogonalEdgeStyle;rounded=0;orthogonalLoop=1;jettySize=auto;html=1;entryX=0;entryY=0.5;entryDx=0;entryDy=0;" edge="1" parent="1" source="7smyxvvECIf_MJmP0ZhW-14" target="7smyxvvECIf_MJmP0ZhW-12">
          <mxGeometry relative="1" as="geometry">
            <mxPoint x="420" y="840" as="targetPoint" />
            <Array as="points">
              <mxPoint x="430" y="840" />
              <mxPoint x="560" y="840" />
            </Array>
          </mxGeometry>
        </mxCell>
        <mxCell id="7smyxvvECIf_MJmP0ZhW-14" value="wypisz&amp;nbsp; brak rozwiązania" style="shape=parallelogram;perimeter=parallelogramPerimeter;whiteSpace=wrap;html=1;fixedSize=1;" vertex="1" parent="1">
          <mxGeometry x="360" y="410" width="120" height="60" as="geometry" />
        </mxCell>
      </root>
    </mxGraphModel>
  </diagram>
</mxfile>
